<mxfile host="app.diagrams.net" modified="2021-05-11T12:09:03.388Z" agent="5.0 (Windows NT 10.0; Win64; x64) AppleWebKit/537.36 (KHTML, like Gecko) Chrome/88.0.4324.190 Safari/537.36" etag="VSYqEUfBo6CfPVSQsA7I" version="14.6.11" type="github">
  <diagram id="11oB7YyhB3Dm7i2V33Dv" name="Page-1">
    <mxGraphModel dx="1038" dy="580" grid="1" gridSize="10" guides="1" tooltips="1" connect="1" arrows="1" fold="1" page="1" pageScale="1" pageWidth="827" pageHeight="1169" math="0" shadow="0">
      <root>
        <mxCell id="0" />
        <mxCell id="1" parent="0" />
        <mxCell id="h1MOtnAgdBjMfUtZ1UEY-1" style="edgeStyle=none;rounded=0;orthogonalLoop=1;jettySize=auto;html=1;exitX=0.5;exitY=1;exitDx=0;exitDy=0;entryX=0.5;entryY=0;entryDx=0;entryDy=0;endArrow=none;endFill=0;startArrow=block;startFill=1;" edge="1" parent="1" source="h1MOtnAgdBjMfUtZ1UEY-3" target="h1MOtnAgdBjMfUtZ1UEY-18">
          <mxGeometry relative="1" as="geometry" />
        </mxCell>
        <mxCell id="h1MOtnAgdBjMfUtZ1UEY-2" style="edgeStyle=none;rounded=0;orthogonalLoop=1;jettySize=auto;html=1;exitX=1;exitY=0.5;exitDx=0;exitDy=0;entryX=0;entryY=0.5;entryDx=0;entryDy=0;endArrow=none;endFill=0;" edge="1" parent="1" source="h1MOtnAgdBjMfUtZ1UEY-3" target="h1MOtnAgdBjMfUtZ1UEY-93">
          <mxGeometry relative="1" as="geometry" />
        </mxCell>
        <mxCell id="h1MOtnAgdBjMfUtZ1UEY-3" value="bussiness" style="rounded=0;whiteSpace=wrap;html=1;" vertex="1" parent="1">
          <mxGeometry x="419" y="460" width="120" height="60" as="geometry" />
        </mxCell>
        <mxCell id="h1MOtnAgdBjMfUtZ1UEY-4" value="Rate" style="rounded=0;whiteSpace=wrap;html=1;" vertex="1" parent="1">
          <mxGeometry x="1110" y="550" width="120" height="60" as="geometry" />
        </mxCell>
        <mxCell id="h1MOtnAgdBjMfUtZ1UEY-5" style="edgeStyle=none;rounded=0;orthogonalLoop=1;jettySize=auto;html=1;exitX=1;exitY=0;exitDx=0;exitDy=0;entryX=0;entryY=1;entryDx=0;entryDy=0;endArrow=none;endFill=0;" edge="1" parent="1" source="h1MOtnAgdBjMfUtZ1UEY-6" target="h1MOtnAgdBjMfUtZ1UEY-79">
          <mxGeometry relative="1" as="geometry" />
        </mxCell>
        <mxCell id="h1MOtnAgdBjMfUtZ1UEY-6" value="Food" style="rounded=0;whiteSpace=wrap;html=1;" vertex="1" parent="1">
          <mxGeometry x="410" y="810" width="120" height="60" as="geometry" />
        </mxCell>
        <mxCell id="h1MOtnAgdBjMfUtZ1UEY-7" style="edgeStyle=none;rounded=0;orthogonalLoop=1;jettySize=auto;html=1;exitX=1;exitY=0.5;exitDx=0;exitDy=0;entryX=0;entryY=0;entryDx=0;entryDy=0;endArrow=none;endFill=0;startArrow=block;startFill=1;" edge="1" parent="1" source="h1MOtnAgdBjMfUtZ1UEY-8" target="h1MOtnAgdBjMfUtZ1UEY-14">
          <mxGeometry relative="1" as="geometry" />
        </mxCell>
        <mxCell id="h1MOtnAgdBjMfUtZ1UEY-8" value="payment" style="rounded=0;whiteSpace=wrap;html=1;" vertex="1" parent="1">
          <mxGeometry x="715" y="930" width="120" height="60" as="geometry" />
        </mxCell>
        <mxCell id="h1MOtnAgdBjMfUtZ1UEY-9" style="edgeStyle=none;rounded=0;orthogonalLoop=1;jettySize=auto;html=1;exitX=0.5;exitY=1;exitDx=0;exitDy=0;entryX=0.75;entryY=0;entryDx=0;entryDy=0;endArrow=none;endFill=0;" edge="1" parent="1" source="h1MOtnAgdBjMfUtZ1UEY-10" target="h1MOtnAgdBjMfUtZ1UEY-3">
          <mxGeometry relative="1" as="geometry" />
        </mxCell>
        <mxCell id="h1MOtnAgdBjMfUtZ1UEY-10" value="bussiness_id" style="ellipse;whiteSpace=wrap;html=1;fontStyle=4" vertex="1" parent="1">
          <mxGeometry x="489" y="420" width="90" height="30" as="geometry" />
        </mxCell>
        <mxCell id="h1MOtnAgdBjMfUtZ1UEY-11" style="edgeStyle=none;rounded=0;orthogonalLoop=1;jettySize=auto;html=1;exitX=1;exitY=0;exitDx=0;exitDy=0;entryX=0;entryY=0.5;entryDx=0;entryDy=0;endArrow=block;endFill=1;" edge="1" parent="1" source="h1MOtnAgdBjMfUtZ1UEY-12" target="h1MOtnAgdBjMfUtZ1UEY-8">
          <mxGeometry relative="1" as="geometry" />
        </mxCell>
        <mxCell id="h1MOtnAgdBjMfUtZ1UEY-12" value="pay" style="rhombus;whiteSpace=wrap;html=1;shadow=0;sketch=0;" vertex="1" parent="1">
          <mxGeometry x="540" y="990" width="110" height="50" as="geometry" />
        </mxCell>
        <mxCell id="h1MOtnAgdBjMfUtZ1UEY-13" style="edgeStyle=none;rounded=0;orthogonalLoop=1;jettySize=auto;html=1;exitX=1;exitY=1;exitDx=0;exitDy=0;entryX=0.5;entryY=0;entryDx=0;entryDy=0;endArrow=block;endFill=1;" edge="1" parent="1" source="h1MOtnAgdBjMfUtZ1UEY-14" target="h1MOtnAgdBjMfUtZ1UEY-70">
          <mxGeometry relative="1" as="geometry" />
        </mxCell>
        <mxCell id="h1MOtnAgdBjMfUtZ1UEY-14" value="receive" style="rhombus;whiteSpace=wrap;html=1;shadow=0;sketch=0;" vertex="1" parent="1">
          <mxGeometry x="920" y="1000" width="110" height="50" as="geometry" />
        </mxCell>
        <mxCell id="h1MOtnAgdBjMfUtZ1UEY-15" style="edgeStyle=none;rounded=0;orthogonalLoop=1;jettySize=auto;html=1;exitX=0.5;exitY=1;exitDx=0;exitDy=0;entryX=0.5;entryY=0;entryDx=0;entryDy=0;endArrow=none;endFill=0;" edge="1" parent="1" source="h1MOtnAgdBjMfUtZ1UEY-16" target="h1MOtnAgdBjMfUtZ1UEY-8">
          <mxGeometry relative="1" as="geometry" />
        </mxCell>
        <mxCell id="h1MOtnAgdBjMfUtZ1UEY-16" value="belong to" style="rhombus;whiteSpace=wrap;html=1;shadow=0;sketch=0;" vertex="1" parent="1">
          <mxGeometry x="725" y="790" width="110" height="50" as="geometry" />
        </mxCell>
        <mxCell id="h1MOtnAgdBjMfUtZ1UEY-17" style="edgeStyle=none;rounded=0;orthogonalLoop=1;jettySize=auto;html=1;exitX=0.5;exitY=1;exitDx=0;exitDy=0;entryX=0.5;entryY=0;entryDx=0;entryDy=0;endArrow=none;endFill=0;" edge="1" parent="1" source="h1MOtnAgdBjMfUtZ1UEY-18" target="h1MOtnAgdBjMfUtZ1UEY-6">
          <mxGeometry relative="1" as="geometry" />
        </mxCell>
        <mxCell id="h1MOtnAgdBjMfUtZ1UEY-18" value="belong to" style="rhombus;whiteSpace=wrap;html=1;shadow=0;sketch=0;" vertex="1" parent="1">
          <mxGeometry x="420" y="680" width="110" height="50" as="geometry" />
        </mxCell>
        <mxCell id="h1MOtnAgdBjMfUtZ1UEY-19" value="" style="group" vertex="1" connectable="0" parent="1">
          <mxGeometry x="800" y="100" width="370" height="170" as="geometry" />
        </mxCell>
        <mxCell id="h1MOtnAgdBjMfUtZ1UEY-20" value="customer" style="rounded=0;whiteSpace=wrap;html=1;" vertex="1" parent="h1MOtnAgdBjMfUtZ1UEY-19">
          <mxGeometry x="120" y="50" width="120" height="60" as="geometry" />
        </mxCell>
        <mxCell id="h1MOtnAgdBjMfUtZ1UEY-21" style="edgeStyle=none;rounded=0;orthogonalLoop=1;jettySize=auto;html=1;exitX=0.5;exitY=1;exitDx=0;exitDy=0;entryX=0.75;entryY=0;entryDx=0;entryDy=0;endArrow=none;endFill=0;" edge="1" parent="h1MOtnAgdBjMfUtZ1UEY-19" source="h1MOtnAgdBjMfUtZ1UEY-22" target="h1MOtnAgdBjMfUtZ1UEY-20">
          <mxGeometry relative="1" as="geometry" />
        </mxCell>
        <mxCell id="h1MOtnAgdBjMfUtZ1UEY-22" value="&lt;u&gt;customer_id&lt;/u&gt;" style="ellipse;whiteSpace=wrap;html=1;" vertex="1" parent="h1MOtnAgdBjMfUtZ1UEY-19">
          <mxGeometry x="205" width="90" height="30" as="geometry" />
        </mxCell>
        <mxCell id="h1MOtnAgdBjMfUtZ1UEY-23" style="edgeStyle=none;rounded=0;orthogonalLoop=1;jettySize=auto;html=1;exitX=0.5;exitY=1;exitDx=0;exitDy=0;entryX=0.25;entryY=0;entryDx=0;entryDy=0;endArrow=none;endFill=0;" edge="1" parent="h1MOtnAgdBjMfUtZ1UEY-19" source="h1MOtnAgdBjMfUtZ1UEY-24" target="h1MOtnAgdBjMfUtZ1UEY-20">
          <mxGeometry relative="1" as="geometry" />
        </mxCell>
        <mxCell id="h1MOtnAgdBjMfUtZ1UEY-24" value="password" style="ellipse;whiteSpace=wrap;html=1;" vertex="1" parent="h1MOtnAgdBjMfUtZ1UEY-19">
          <mxGeometry x="105" width="90" height="30" as="geometry" />
        </mxCell>
        <mxCell id="h1MOtnAgdBjMfUtZ1UEY-25" value="account_&lt;span style=&quot;color: rgba(0 , 0 , 0 , 0) ; font-family: monospace ; font-size: 0px&quot;&gt;%3CmxGraphModel%3E%3Croot%3E%3CmxCell%20id%3D%220%22%2F%3E%3CmxCell%20id%3D%221%22%20parent%3D%220%22%2F%3E%3CmxCell%20id%3D%222%22%20value%3D%22customer_id%22%20style%3D%22ellipse%3BwhiteSpace%3Dwrap%3Bhtml%3D1%3B%22%20vertex%3D%221%22%20parent%3D%221%22%3E%3CmxGeometry%20x%3D%22100%22%20y%3D%2220%22%20width%3D%2290%22%20height%3D%2230%22%20as%3D%22geometry%22%2F%3E%3C%2FmxCell%3E%3C%2Froot%3E%3C%2FmxGraphModel%3E&lt;/span&gt;id&lt;span style=&quot;color: rgba(0 , 0 , 0 , 0) ; font-family: monospace ; font-size: 0px&quot;&gt;%3CmxGraphModel%3E%3Croot%3E%3CmxCell%20id%3D%220%22%2F%3E%3CmxCell%20id%3D%221%22%20parent%3D%220%22%2F%3E%3CmxCell%20id%3D%222%22%20value%3D%22customer_id%22%20style%3D%22ellipse%3BwhiteSpace%3Dwrap%3Bhtml%3D1%3B%22%20vertex%3D%221%22%20parent%3D%221%22%3E%3CmxGeometry%20x%3D%22100%22%20y%3D%2220%22%20width%3D%2290%22%20height%3D%2230%22%20as%3D%22geometry%22%2F%3E%3C%2FmxCell%3E%3C%2Froot%3E%3C%2FmxGraphModel%3E&lt;/span&gt;" style="ellipse;whiteSpace=wrap;html=1;" vertex="1" parent="h1MOtnAgdBjMfUtZ1UEY-19">
          <mxGeometry x="-2" width="92" height="30" as="geometry" />
        </mxCell>
        <mxCell id="h1MOtnAgdBjMfUtZ1UEY-26" style="edgeStyle=none;rounded=0;orthogonalLoop=1;jettySize=auto;html=1;exitX=1;exitY=0.5;exitDx=0;exitDy=0;entryX=0.25;entryY=1;entryDx=0;entryDy=0;endArrow=none;endFill=0;" edge="1" parent="h1MOtnAgdBjMfUtZ1UEY-19" source="h1MOtnAgdBjMfUtZ1UEY-27" target="h1MOtnAgdBjMfUtZ1UEY-20">
          <mxGeometry relative="1" as="geometry" />
        </mxCell>
        <mxCell id="h1MOtnAgdBjMfUtZ1UEY-27" value="address" style="ellipse;whiteSpace=wrap;html=1;" vertex="1" parent="h1MOtnAgdBjMfUtZ1UEY-19">
          <mxGeometry x="-2" y="120" width="90" height="30" as="geometry" />
        </mxCell>
        <mxCell id="h1MOtnAgdBjMfUtZ1UEY-28" style="edgeStyle=orthogonalEdgeStyle;rounded=0;orthogonalLoop=1;jettySize=auto;html=1;exitX=1;exitY=0.5;exitDx=0;exitDy=0;entryX=0;entryY=1;entryDx=0;entryDy=0;strokeColor=none;" edge="1" parent="h1MOtnAgdBjMfUtZ1UEY-19" source="h1MOtnAgdBjMfUtZ1UEY-30" target="h1MOtnAgdBjMfUtZ1UEY-20">
          <mxGeometry relative="1" as="geometry" />
        </mxCell>
        <mxCell id="h1MOtnAgdBjMfUtZ1UEY-29" style="edgeStyle=none;rounded=0;orthogonalLoop=1;jettySize=auto;html=1;exitX=1;exitY=0.5;exitDx=0;exitDy=0;entryX=0;entryY=0.5;entryDx=0;entryDy=0;endArrow=none;endFill=0;" edge="1" parent="h1MOtnAgdBjMfUtZ1UEY-19" source="h1MOtnAgdBjMfUtZ1UEY-30" target="h1MOtnAgdBjMfUtZ1UEY-20">
          <mxGeometry relative="1" as="geometry" />
        </mxCell>
        <mxCell id="h1MOtnAgdBjMfUtZ1UEY-30" value="phone_number" style="ellipse;whiteSpace=wrap;html=1;" vertex="1" parent="h1MOtnAgdBjMfUtZ1UEY-19">
          <mxGeometry x="-1" y="65" width="90" height="30" as="geometry" />
        </mxCell>
        <mxCell id="h1MOtnAgdBjMfUtZ1UEY-31" style="edgeStyle=none;rounded=0;orthogonalLoop=1;jettySize=auto;html=1;exitX=0;exitY=0.5;exitDx=0;exitDy=0;entryX=0.75;entryY=1;entryDx=0;entryDy=0;endArrow=none;endFill=0;" edge="1" parent="h1MOtnAgdBjMfUtZ1UEY-19" source="h1MOtnAgdBjMfUtZ1UEY-32" target="h1MOtnAgdBjMfUtZ1UEY-20">
          <mxGeometry relative="1" as="geometry" />
        </mxCell>
        <mxCell id="h1MOtnAgdBjMfUtZ1UEY-32" value="name" style="ellipse;whiteSpace=wrap;html=1;" vertex="1" parent="h1MOtnAgdBjMfUtZ1UEY-19">
          <mxGeometry x="280" y="120" width="90" height="30" as="geometry" />
        </mxCell>
        <mxCell id="h1MOtnAgdBjMfUtZ1UEY-33" style="edgeStyle=none;rounded=0;orthogonalLoop=1;jettySize=auto;html=1;exitX=0;exitY=0.5;exitDx=0;exitDy=0;entryX=1;entryY=0.75;entryDx=0;entryDy=0;endArrow=none;endFill=0;" edge="1" parent="h1MOtnAgdBjMfUtZ1UEY-19" source="h1MOtnAgdBjMfUtZ1UEY-34" target="h1MOtnAgdBjMfUtZ1UEY-20">
          <mxGeometry relative="1" as="geometry" />
        </mxCell>
        <mxCell id="h1MOtnAgdBjMfUtZ1UEY-34" value="gender" style="ellipse;whiteSpace=wrap;html=1;shadow=0;sketch=0;dashed=1;" vertex="1" parent="h1MOtnAgdBjMfUtZ1UEY-19">
          <mxGeometry x="280" y="60" width="90" height="30" as="geometry" />
        </mxCell>
        <mxCell id="h1MOtnAgdBjMfUtZ1UEY-35" style="edgeStyle=none;rounded=0;orthogonalLoop=1;jettySize=auto;html=1;exitX=0;exitY=0.5;exitDx=0;exitDy=0;entryX=1;entryY=0.25;entryDx=0;entryDy=0;endArrow=none;endFill=0;" edge="1" parent="h1MOtnAgdBjMfUtZ1UEY-19" source="h1MOtnAgdBjMfUtZ1UEY-36" target="h1MOtnAgdBjMfUtZ1UEY-20">
          <mxGeometry relative="1" as="geometry" />
        </mxCell>
        <mxCell id="h1MOtnAgdBjMfUtZ1UEY-36" value="birthday" style="ellipse;whiteSpace=wrap;html=1;shadow=0;sketch=0;dashed=1;" vertex="1" parent="h1MOtnAgdBjMfUtZ1UEY-19">
          <mxGeometry x="295" y="20" width="90" height="30" as="geometry" />
        </mxCell>
        <mxCell id="h1MOtnAgdBjMfUtZ1UEY-37" style="rounded=0;orthogonalLoop=1;jettySize=auto;html=1;exitX=1;exitY=0.5;exitDx=0;exitDy=0;endArrow=none;endFill=0;entryX=0;entryY=0.25;entryDx=0;entryDy=0;" edge="1" parent="h1MOtnAgdBjMfUtZ1UEY-19" source="h1MOtnAgdBjMfUtZ1UEY-25" target="h1MOtnAgdBjMfUtZ1UEY-20">
          <mxGeometry relative="1" as="geometry">
            <mxPoint x="200" y="70" as="targetPoint" />
          </mxGeometry>
        </mxCell>
        <mxCell id="h1MOtnAgdBjMfUtZ1UEY-38" style="edgeStyle=none;rounded=0;orthogonalLoop=1;jettySize=auto;html=1;exitX=1;exitY=0.75;exitDx=0;exitDy=0;entryX=1;entryY=0.5;entryDx=0;entryDy=0;startArrow=none;startFill=0;endArrow=none;endFill=0;" edge="1" parent="h1MOtnAgdBjMfUtZ1UEY-19" source="h1MOtnAgdBjMfUtZ1UEY-20" target="h1MOtnAgdBjMfUtZ1UEY-20">
          <mxGeometry relative="1" as="geometry" />
        </mxCell>
        <mxCell id="h1MOtnAgdBjMfUtZ1UEY-39" style="edgeStyle=none;rounded=0;orthogonalLoop=1;jettySize=auto;html=1;exitX=1;exitY=0.75;exitDx=0;exitDy=0;entryX=1;entryY=0.5;entryDx=0;entryDy=0;startArrow=none;startFill=0;endArrow=none;endFill=0;" edge="1" parent="h1MOtnAgdBjMfUtZ1UEY-19" source="h1MOtnAgdBjMfUtZ1UEY-20" target="h1MOtnAgdBjMfUtZ1UEY-20">
          <mxGeometry relative="1" as="geometry" />
        </mxCell>
        <mxCell id="h1MOtnAgdBjMfUtZ1UEY-40" value="" style="group" vertex="1" connectable="0" parent="1">
          <mxGeometry x="320" y="80" width="340" height="170" as="geometry" />
        </mxCell>
        <mxCell id="h1MOtnAgdBjMfUtZ1UEY-41" value="seller" style="rounded=0;whiteSpace=wrap;html=1;" vertex="1" parent="h1MOtnAgdBjMfUtZ1UEY-40">
          <mxGeometry x="100" y="60" width="120" height="60" as="geometry" />
        </mxCell>
        <mxCell id="h1MOtnAgdBjMfUtZ1UEY-42" value="seller_id" style="ellipse;whiteSpace=wrap;html=1;fontStyle=4" vertex="1" parent="h1MOtnAgdBjMfUtZ1UEY-40">
          <mxGeometry x="10" y="20" width="90" height="30" as="geometry" />
        </mxCell>
        <mxCell id="h1MOtnAgdBjMfUtZ1UEY-43" value="password" style="ellipse;whiteSpace=wrap;html=1;" vertex="1" parent="h1MOtnAgdBjMfUtZ1UEY-40">
          <mxGeometry x="100" width="90" height="30" as="geometry" />
        </mxCell>
        <mxCell id="h1MOtnAgdBjMfUtZ1UEY-44" value="account_&lt;span style=&quot;color: rgba(0 , 0 , 0 , 0) ; font-family: monospace ; font-size: 0px&quot;&gt;%3CmxGraphModel%3E%3Croot%3E%3CmxCell%20id%3D%220%22%2F%3E%3CmxCell%20id%3D%221%22%20parent%3D%220%22%2F%3E%3CmxCell%20id%3D%222%22%20value%3D%22customer_id%22%20style%3D%22ellipse%3BwhiteSpace%3Dwrap%3Bhtml%3D1%3B%22%20vertex%3D%221%22%20parent%3D%221%22%3E%3CmxGeometry%20x%3D%22100%22%20y%3D%2220%22%20width%3D%2290%22%20height%3D%2230%22%20as%3D%22geometry%22%2F%3E%3C%2FmxCell%3E%3C%2Froot%3E%3C%2FmxGraphModel%3E&lt;/span&gt;id&lt;span style=&quot;color: rgba(0 , 0 , 0 , 0) ; font-family: monospace ; font-size: 0px&quot;&gt;%3CmxGraphModel%3E%3Croot%3E%3CmxCell%20id%3D%220%22%2F%3E%3CmxCell%20id%3D%221%22%20parent%3D%220%22%2F%3E%3CmxCell%20id%3D%222%22%20value%3D%22customer_id%22%20style%3D%22ellipse%3BwhiteSpace%3Dwrap%3Bhtml%3D1%3B%22%20vertex%3D%221%22%20parent%3D%221%22%3E%3CmxGeometry%20x%3D%22100%22%20y%3D%2220%22%20width%3D%2290%22%20height%3D%2230%22%20as%3D%22geometry%22%2F%3E%3C%2FmxCell%3E%3C%2Froot%3E%3C%2FmxGraphModel%3E&lt;/span&gt;" style="ellipse;whiteSpace=wrap;html=1;" vertex="1" parent="h1MOtnAgdBjMfUtZ1UEY-40">
          <mxGeometry x="205" y="10" width="92" height="30" as="geometry" />
        </mxCell>
        <mxCell id="h1MOtnAgdBjMfUtZ1UEY-45" value="phone_number" style="ellipse;whiteSpace=wrap;html=1;" vertex="1" parent="h1MOtnAgdBjMfUtZ1UEY-40">
          <mxGeometry x="250" y="50" width="90" height="30" as="geometry" />
        </mxCell>
        <mxCell id="h1MOtnAgdBjMfUtZ1UEY-46" value="address" style="ellipse;whiteSpace=wrap;html=1;" vertex="1" parent="h1MOtnAgdBjMfUtZ1UEY-40">
          <mxGeometry x="250" y="100" width="90" height="30" as="geometry" />
        </mxCell>
        <mxCell id="h1MOtnAgdBjMfUtZ1UEY-47" value="name" style="ellipse;whiteSpace=wrap;html=1;" vertex="1" parent="h1MOtnAgdBjMfUtZ1UEY-40">
          <mxGeometry x="180" y="140" width="90" height="30" as="geometry" />
        </mxCell>
        <mxCell id="h1MOtnAgdBjMfUtZ1UEY-48" value="birthday" style="ellipse;whiteSpace=wrap;html=1;shadow=0;sketch=0;dashed=1;" vertex="1" parent="h1MOtnAgdBjMfUtZ1UEY-40">
          <mxGeometry y="90" width="90" height="30" as="geometry" />
        </mxCell>
        <mxCell id="h1MOtnAgdBjMfUtZ1UEY-49" value="gender" style="ellipse;whiteSpace=wrap;html=1;shadow=0;sketch=0;dashed=1;" vertex="1" parent="h1MOtnAgdBjMfUtZ1UEY-40">
          <mxGeometry x="70" y="140" width="90" height="30" as="geometry" />
        </mxCell>
        <mxCell id="h1MOtnAgdBjMfUtZ1UEY-50" value="" style="endArrow=none;html=1;rounded=0;" edge="1" parent="h1MOtnAgdBjMfUtZ1UEY-40" source="h1MOtnAgdBjMfUtZ1UEY-41" target="h1MOtnAgdBjMfUtZ1UEY-47">
          <mxGeometry relative="1" as="geometry">
            <mxPoint x="350" y="360" as="sourcePoint" />
            <mxPoint x="510" y="360" as="targetPoint" />
          </mxGeometry>
        </mxCell>
        <mxCell id="h1MOtnAgdBjMfUtZ1UEY-51" value="" style="endArrow=none;html=1;rounded=0;exitX=0.75;exitY=0;exitDx=0;exitDy=0;entryX=0;entryY=1;entryDx=0;entryDy=0;" edge="1" parent="h1MOtnAgdBjMfUtZ1UEY-40" source="h1MOtnAgdBjMfUtZ1UEY-41" target="h1MOtnAgdBjMfUtZ1UEY-44">
          <mxGeometry relative="1" as="geometry">
            <mxPoint x="350" y="170" as="sourcePoint" />
            <mxPoint x="510" y="170" as="targetPoint" />
          </mxGeometry>
        </mxCell>
        <mxCell id="h1MOtnAgdBjMfUtZ1UEY-52" value="" style="endArrow=none;html=1;rounded=0;entryX=0.5;entryY=1;entryDx=0;entryDy=0;" edge="1" parent="h1MOtnAgdBjMfUtZ1UEY-40" target="h1MOtnAgdBjMfUtZ1UEY-43">
          <mxGeometry relative="1" as="geometry">
            <mxPoint x="150" y="60" as="sourcePoint" />
            <mxPoint x="310" y="60" as="targetPoint" />
          </mxGeometry>
        </mxCell>
        <mxCell id="h1MOtnAgdBjMfUtZ1UEY-53" value="" style="endArrow=none;html=1;rounded=0;exitX=1;exitY=0;exitDx=0;exitDy=0;entryX=0;entryY=0.5;entryDx=0;entryDy=0;" edge="1" parent="h1MOtnAgdBjMfUtZ1UEY-40" source="h1MOtnAgdBjMfUtZ1UEY-48" target="h1MOtnAgdBjMfUtZ1UEY-41">
          <mxGeometry relative="1" as="geometry">
            <mxPoint x="350" y="170" as="sourcePoint" />
            <mxPoint x="510" y="170" as="targetPoint" />
          </mxGeometry>
        </mxCell>
        <mxCell id="h1MOtnAgdBjMfUtZ1UEY-54" value="" style="endArrow=none;html=1;rounded=0;exitX=0.5;exitY=0;exitDx=0;exitDy=0;entryX=0.387;entryY=0.987;entryDx=0;entryDy=0;entryPerimeter=0;" edge="1" parent="h1MOtnAgdBjMfUtZ1UEY-40" source="h1MOtnAgdBjMfUtZ1UEY-49" target="h1MOtnAgdBjMfUtZ1UEY-41">
          <mxGeometry relative="1" as="geometry">
            <mxPoint x="350" y="170" as="sourcePoint" />
            <mxPoint x="84.4000244140625" y="82" as="targetPoint" />
          </mxGeometry>
        </mxCell>
        <mxCell id="h1MOtnAgdBjMfUtZ1UEY-107" value="" style="endArrow=none;html=1;rounded=0;entryX=0.68;entryY=1.04;entryDx=0;entryDy=0;entryPerimeter=0;exitX=0;exitY=0;exitDx=0;exitDy=0;" edge="1" parent="h1MOtnAgdBjMfUtZ1UEY-40" target="h1MOtnAgdBjMfUtZ1UEY-42" source="h1MOtnAgdBjMfUtZ1UEY-41">
          <mxGeometry relative="1" as="geometry">
            <mxPoint x="60" y="240" as="sourcePoint" />
            <mxPoint x="470" y="350" as="targetPoint" />
          </mxGeometry>
        </mxCell>
        <mxCell id="h1MOtnAgdBjMfUtZ1UEY-106" value="" style="endArrow=none;html=1;rounded=0;entryX=0;entryY=0.5;entryDx=0;entryDy=0;exitX=1;exitY=0;exitDx=0;exitDy=0;" edge="1" parent="h1MOtnAgdBjMfUtZ1UEY-40" target="h1MOtnAgdBjMfUtZ1UEY-45" source="h1MOtnAgdBjMfUtZ1UEY-41">
          <mxGeometry relative="1" as="geometry">
            <mxPoint x="180" y="250" as="sourcePoint" />
            <mxPoint x="470" y="350" as="targetPoint" />
          </mxGeometry>
        </mxCell>
        <mxCell id="h1MOtnAgdBjMfUtZ1UEY-105" value="" style="endArrow=none;html=1;rounded=0;exitX=1;exitY=0.75;exitDx=0;exitDy=0;entryX=0;entryY=0.5;entryDx=0;entryDy=0;" edge="1" parent="h1MOtnAgdBjMfUtZ1UEY-40" source="h1MOtnAgdBjMfUtZ1UEY-41" target="h1MOtnAgdBjMfUtZ1UEY-46">
          <mxGeometry relative="1" as="geometry">
            <mxPoint x="310" y="350" as="sourcePoint" />
            <mxPoint x="210" y="290" as="targetPoint" />
          </mxGeometry>
        </mxCell>
        <mxCell id="h1MOtnAgdBjMfUtZ1UEY-55" value="" style="group;fontStyle=4" vertex="1" connectable="0" parent="1">
          <mxGeometry x="360" y="1085" width="342" height="60" as="geometry" />
        </mxCell>
        <mxCell id="h1MOtnAgdBjMfUtZ1UEY-56" value="c_account" style="rounded=0;whiteSpace=wrap;html=1;" vertex="1" parent="h1MOtnAgdBjMfUtZ1UEY-55">
          <mxGeometry x="110" width="120" height="60" as="geometry" />
        </mxCell>
        <mxCell id="h1MOtnAgdBjMfUtZ1UEY-57" style="edgeStyle=none;rounded=0;orthogonalLoop=1;jettySize=auto;html=1;exitX=1;exitY=0.5;exitDx=0;exitDy=0;entryX=0;entryY=0.5;entryDx=0;entryDy=0;endArrow=none;endFill=0;" edge="1" parent="h1MOtnAgdBjMfUtZ1UEY-55" source="h1MOtnAgdBjMfUtZ1UEY-58" target="h1MOtnAgdBjMfUtZ1UEY-56">
          <mxGeometry relative="1" as="geometry" />
        </mxCell>
        <mxCell id="h1MOtnAgdBjMfUtZ1UEY-58" value="c_account_id" style="ellipse;whiteSpace=wrap;html=1;fontStyle=4" vertex="1" parent="h1MOtnAgdBjMfUtZ1UEY-55">
          <mxGeometry y="15" width="92" height="30" as="geometry" />
        </mxCell>
        <mxCell id="h1MOtnAgdBjMfUtZ1UEY-59" style="edgeStyle=none;rounded=0;orthogonalLoop=1;jettySize=auto;html=1;exitX=0;exitY=0.5;exitDx=0;exitDy=0;entryX=1;entryY=0.5;entryDx=0;entryDy=0;endArrow=none;endFill=0;" edge="1" parent="h1MOtnAgdBjMfUtZ1UEY-55" source="h1MOtnAgdBjMfUtZ1UEY-60" target="h1MOtnAgdBjMfUtZ1UEY-56">
          <mxGeometry relative="1" as="geometry" />
        </mxCell>
        <mxCell id="h1MOtnAgdBjMfUtZ1UEY-60" value="balance" style="ellipse;whiteSpace=wrap;html=1;" vertex="1" parent="h1MOtnAgdBjMfUtZ1UEY-55">
          <mxGeometry x="250" y="15" width="92" height="30" as="geometry" />
        </mxCell>
        <mxCell id="h1MOtnAgdBjMfUtZ1UEY-61" style="edgeStyle=none;rounded=0;orthogonalLoop=1;jettySize=auto;html=1;exitX=0.5;exitY=1;exitDx=0;exitDy=0;entryX=0.25;entryY=0;entryDx=0;entryDy=0;endArrow=none;endFill=0;" edge="1" parent="1" source="h1MOtnAgdBjMfUtZ1UEY-62" target="h1MOtnAgdBjMfUtZ1UEY-3">
          <mxGeometry relative="1" as="geometry" />
        </mxCell>
        <mxCell id="h1MOtnAgdBjMfUtZ1UEY-62" value="bussiness_name" style="ellipse;whiteSpace=wrap;html=1;" vertex="1" parent="1">
          <mxGeometry x="369" y="420" width="99" height="30" as="geometry" />
        </mxCell>
        <mxCell id="h1MOtnAgdBjMfUtZ1UEY-63" style="edgeStyle=none;rounded=0;orthogonalLoop=1;jettySize=auto;html=1;entryX=1;entryY=0;entryDx=0;entryDy=0;endArrow=none;endFill=0;exitX=0.5;exitY=1;exitDx=0;exitDy=0;" edge="1" parent="1" source="h1MOtnAgdBjMfUtZ1UEY-64" target="h1MOtnAgdBjMfUtZ1UEY-4">
          <mxGeometry relative="1" as="geometry">
            <mxPoint x="1241" y="510" as="sourcePoint" />
          </mxGeometry>
        </mxCell>
        <mxCell id="h1MOtnAgdBjMfUtZ1UEY-64" value="rate_id" style="ellipse;whiteSpace=wrap;html=1;fontStyle=4" vertex="1" parent="1">
          <mxGeometry x="1196" y="470" width="90" height="30" as="geometry" />
        </mxCell>
        <mxCell id="h1MOtnAgdBjMfUtZ1UEY-65" style="edgeStyle=none;rounded=0;orthogonalLoop=1;jettySize=auto;html=1;exitX=1;exitY=0.5;exitDx=0;exitDy=0;entryX=0;entryY=0.25;entryDx=0;entryDy=0;endArrow=none;endFill=0;" edge="1" parent="1" source="h1MOtnAgdBjMfUtZ1UEY-66" target="h1MOtnAgdBjMfUtZ1UEY-6">
          <mxGeometry relative="1" as="geometry" />
        </mxCell>
        <mxCell id="h1MOtnAgdBjMfUtZ1UEY-66" value="food_id" style="ellipse;whiteSpace=wrap;html=1;fontStyle=4" vertex="1" parent="1">
          <mxGeometry x="310" y="800" width="90" height="30" as="geometry" />
        </mxCell>
        <mxCell id="h1MOtnAgdBjMfUtZ1UEY-67" value="payment_id" style="ellipse;whiteSpace=wrap;html=1;fontStyle=4" vertex="1" parent="1">
          <mxGeometry x="612" y="900" width="90" height="30" as="geometry" />
        </mxCell>
        <mxCell id="h1MOtnAgdBjMfUtZ1UEY-68" value="c_account_id" style="ellipse;whiteSpace=wrap;html=1;" vertex="1" parent="1">
          <mxGeometry x="734" y="1020" width="92" height="30" as="geometry" />
        </mxCell>
        <mxCell id="h1MOtnAgdBjMfUtZ1UEY-69" value="" style="group" vertex="1" connectable="0" parent="1">
          <mxGeometry x="899" y="1095" width="343" height="60" as="geometry" />
        </mxCell>
        <mxCell id="h1MOtnAgdBjMfUtZ1UEY-70" value="s_account" style="rounded=0;whiteSpace=wrap;html=1;" vertex="1" parent="h1MOtnAgdBjMfUtZ1UEY-69">
          <mxGeometry x="111" width="120" height="60" as="geometry" />
        </mxCell>
        <mxCell id="h1MOtnAgdBjMfUtZ1UEY-71" style="edgeStyle=none;rounded=0;orthogonalLoop=1;jettySize=auto;html=1;exitX=1;exitY=0.5;exitDx=0;exitDy=0;entryX=0;entryY=0.5;entryDx=0;entryDy=0;endArrow=none;endFill=0;" edge="1" parent="h1MOtnAgdBjMfUtZ1UEY-69" source="h1MOtnAgdBjMfUtZ1UEY-72" target="h1MOtnAgdBjMfUtZ1UEY-70">
          <mxGeometry relative="1" as="geometry" />
        </mxCell>
        <mxCell id="h1MOtnAgdBjMfUtZ1UEY-72" value="s_account_id" style="ellipse;whiteSpace=wrap;html=1;fontStyle=4" vertex="1" parent="h1MOtnAgdBjMfUtZ1UEY-69">
          <mxGeometry y="15" width="92" height="30" as="geometry" />
        </mxCell>
        <mxCell id="h1MOtnAgdBjMfUtZ1UEY-73" style="edgeStyle=none;rounded=0;orthogonalLoop=1;jettySize=auto;html=1;exitX=0;exitY=0.5;exitDx=0;exitDy=0;entryX=1;entryY=0.5;entryDx=0;entryDy=0;endArrow=none;endFill=0;" edge="1" parent="h1MOtnAgdBjMfUtZ1UEY-69" source="h1MOtnAgdBjMfUtZ1UEY-74" target="h1MOtnAgdBjMfUtZ1UEY-70">
          <mxGeometry relative="1" as="geometry" />
        </mxCell>
        <mxCell id="h1MOtnAgdBjMfUtZ1UEY-74" value="balance" style="ellipse;whiteSpace=wrap;html=1;" vertex="1" parent="h1MOtnAgdBjMfUtZ1UEY-69">
          <mxGeometry x="251" y="15" width="92" height="30" as="geometry" />
        </mxCell>
        <mxCell id="h1MOtnAgdBjMfUtZ1UEY-75" value="s_account_id" style="ellipse;whiteSpace=wrap;html=1;" vertex="1" parent="1">
          <mxGeometry x="850" y="900" width="92" height="30" as="geometry" />
        </mxCell>
        <mxCell id="h1MOtnAgdBjMfUtZ1UEY-76" style="edgeStyle=none;rounded=0;orthogonalLoop=1;jettySize=auto;html=1;exitX=0.5;exitY=1;exitDx=0;exitDy=0;entryX=0.25;entryY=0;entryDx=0;entryDy=0;endArrow=none;endFill=0;" edge="1" parent="1" source="h1MOtnAgdBjMfUtZ1UEY-77" target="h1MOtnAgdBjMfUtZ1UEY-6">
          <mxGeometry relative="1" as="geometry" />
        </mxCell>
        <mxCell id="h1MOtnAgdBjMfUtZ1UEY-77" value="food_name" style="ellipse;whiteSpace=wrap;html=1;" vertex="1" parent="1">
          <mxGeometry x="350" y="760" width="99" height="30" as="geometry" />
        </mxCell>
        <mxCell id="h1MOtnAgdBjMfUtZ1UEY-78" style="edgeStyle=none;rounded=0;orthogonalLoop=1;jettySize=auto;html=1;exitX=1;exitY=0;exitDx=0;exitDy=0;entryX=0;entryY=0.75;entryDx=0;entryDy=0;endArrow=none;endFill=0;" edge="1" parent="1" source="h1MOtnAgdBjMfUtZ1UEY-79" target="h1MOtnAgdBjMfUtZ1UEY-111">
          <mxGeometry relative="1" as="geometry" />
        </mxCell>
        <mxCell id="h1MOtnAgdBjMfUtZ1UEY-79" value="contain" style="rhombus;whiteSpace=wrap;html=1;shadow=0;sketch=0;" vertex="1" parent="1">
          <mxGeometry x="530" y="730" width="110" height="50" as="geometry" />
        </mxCell>
        <mxCell id="h1MOtnAgdBjMfUtZ1UEY-80" style="edgeStyle=none;rounded=0;orthogonalLoop=1;jettySize=auto;html=1;exitX=1;exitY=0.5;exitDx=0;exitDy=0;entryX=0;entryY=1;entryDx=0;entryDy=0;endArrow=none;endFill=0;" edge="1" parent="1" source="h1MOtnAgdBjMfUtZ1UEY-81" target="h1MOtnAgdBjMfUtZ1UEY-4">
          <mxGeometry relative="1" as="geometry" />
        </mxCell>
        <mxCell id="h1MOtnAgdBjMfUtZ1UEY-81" value="relate to" style="rhombus;whiteSpace=wrap;html=1;shadow=0;sketch=0;" vertex="1" parent="1">
          <mxGeometry x="970" y="605" width="110" height="50" as="geometry" />
        </mxCell>
        <mxCell id="h1MOtnAgdBjMfUtZ1UEY-82" style="edgeStyle=none;rounded=0;orthogonalLoop=1;jettySize=auto;html=1;exitX=1;exitY=0.5;exitDx=0;exitDy=0;entryX=0;entryY=0.25;entryDx=0;entryDy=0;endArrow=none;endFill=0;" edge="1" parent="1" source="h1MOtnAgdBjMfUtZ1UEY-83" target="h1MOtnAgdBjMfUtZ1UEY-3">
          <mxGeometry relative="1" as="geometry" />
        </mxCell>
        <mxCell id="h1MOtnAgdBjMfUtZ1UEY-83" value="bussiness_type" style="ellipse;whiteSpace=wrap;html=1;" vertex="1" parent="1">
          <mxGeometry x="304.5" y="460" width="99" height="30" as="geometry" />
        </mxCell>
        <mxCell id="h1MOtnAgdBjMfUtZ1UEY-84" value="own" style="rhombus;whiteSpace=wrap;html=1;shadow=0;sketch=0;" vertex="1" parent="1">
          <mxGeometry x="425" y="300" width="110" height="50" as="geometry" />
        </mxCell>
        <mxCell id="h1MOtnAgdBjMfUtZ1UEY-85" style="edgeStyle=none;rounded=0;orthogonalLoop=1;jettySize=auto;html=1;exitX=0.5;exitY=1;exitDx=0;exitDy=0;entryX=0.5;entryY=0;entryDx=0;entryDy=0;endArrow=none;endFill=0;" edge="1" parent="1" source="h1MOtnAgdBjMfUtZ1UEY-86" target="h1MOtnAgdBjMfUtZ1UEY-4">
          <mxGeometry relative="1" as="geometry" />
        </mxCell>
        <mxCell id="h1MOtnAgdBjMfUtZ1UEY-86" value="rating" style="rhombus;whiteSpace=wrap;html=1;shadow=0;sketch=0;" vertex="1" parent="1">
          <mxGeometry x="1060" y="465" width="110" height="50" as="geometry" />
        </mxCell>
        <mxCell id="h1MOtnAgdBjMfUtZ1UEY-87" style="edgeStyle=none;rounded=0;orthogonalLoop=1;jettySize=auto;html=1;exitX=1;exitY=0.5;exitDx=0;exitDy=0;entryX=0;entryY=0.5;entryDx=0;entryDy=0;endArrow=none;endFill=0;" edge="1" parent="1" source="h1MOtnAgdBjMfUtZ1UEY-88" target="h1MOtnAgdBjMfUtZ1UEY-6">
          <mxGeometry relative="1" as="geometry" />
        </mxCell>
        <mxCell id="h1MOtnAgdBjMfUtZ1UEY-88" value="food_price" style="ellipse;whiteSpace=wrap;html=1;" vertex="1" parent="1">
          <mxGeometry x="300" y="840" width="99" height="30" as="geometry" />
        </mxCell>
        <mxCell id="h1MOtnAgdBjMfUtZ1UEY-89" style="edgeStyle=none;rounded=0;orthogonalLoop=1;jettySize=auto;html=1;exitX=0.5;exitY=0;exitDx=0;exitDy=0;entryX=0;entryY=1;entryDx=0;entryDy=0;endArrow=none;endFill=0;" edge="1" parent="1" source="h1MOtnAgdBjMfUtZ1UEY-90" target="h1MOtnAgdBjMfUtZ1UEY-6">
          <mxGeometry relative="1" as="geometry" />
        </mxCell>
        <mxCell id="h1MOtnAgdBjMfUtZ1UEY-90" value="sale_count" style="ellipse;whiteSpace=wrap;html=1;" vertex="1" parent="1">
          <mxGeometry x="326" y="890" width="99" height="30" as="geometry" />
        </mxCell>
        <mxCell id="h1MOtnAgdBjMfUtZ1UEY-91" style="edgeStyle=none;rounded=0;orthogonalLoop=1;jettySize=auto;html=1;exitX=0.5;exitY=0;exitDx=0;exitDy=0;entryX=0.5;entryY=1;entryDx=0;entryDy=0;endArrow=block;endFill=1;" edge="1" parent="1" source="h1MOtnAgdBjMfUtZ1UEY-93" target="h1MOtnAgdBjMfUtZ1UEY-20">
          <mxGeometry relative="1" as="geometry" />
        </mxCell>
        <mxCell id="h1MOtnAgdBjMfUtZ1UEY-92" style="edgeStyle=none;rounded=0;orthogonalLoop=1;jettySize=auto;html=1;exitX=0.5;exitY=1;exitDx=0;exitDy=0;entryX=0.75;entryY=0;entryDx=0;entryDy=0;endArrow=none;endFill=0;" edge="1" parent="1" source="h1MOtnAgdBjMfUtZ1UEY-93" target="h1MOtnAgdBjMfUtZ1UEY-111">
          <mxGeometry relative="1" as="geometry" />
        </mxCell>
        <mxCell id="h1MOtnAgdBjMfUtZ1UEY-93" value="ordering" style="rhombus;whiteSpace=wrap;html=1;shadow=0;sketch=0;" vertex="1" parent="1">
          <mxGeometry x="780" y="465" width="110" height="50" as="geometry" />
        </mxCell>
        <mxCell id="h1MOtnAgdBjMfUtZ1UEY-94" style="edgeStyle=none;rounded=0;orthogonalLoop=1;jettySize=auto;html=1;exitX=1;exitY=0.5;exitDx=0;exitDy=0;entryX=0;entryY=0.75;entryDx=0;entryDy=0;endArrow=none;endFill=0;" edge="1" parent="1" source="h1MOtnAgdBjMfUtZ1UEY-95" target="h1MOtnAgdBjMfUtZ1UEY-3">
          <mxGeometry relative="1" as="geometry" />
        </mxCell>
        <mxCell id="h1MOtnAgdBjMfUtZ1UEY-95" value="average_rating" style="ellipse;whiteSpace=wrap;html=1;" vertex="1" parent="1">
          <mxGeometry x="300" y="500" width="99" height="30" as="geometry" />
        </mxCell>
        <mxCell id="h1MOtnAgdBjMfUtZ1UEY-96" style="edgeStyle=none;rounded=0;orthogonalLoop=1;jettySize=auto;html=1;exitX=0;exitY=0.5;exitDx=0;exitDy=0;entryX=1;entryY=0.25;entryDx=0;entryDy=0;endArrow=none;endFill=0;" edge="1" parent="1" source="h1MOtnAgdBjMfUtZ1UEY-97" target="h1MOtnAgdBjMfUtZ1UEY-3">
          <mxGeometry relative="1" as="geometry">
            <mxPoint x="559.1763370217795" y="479.33969500666717" as="sourcePoint" />
          </mxGeometry>
        </mxCell>
        <mxCell id="h1MOtnAgdBjMfUtZ1UEY-97" value="location" style="ellipse;whiteSpace=wrap;html=1;" vertex="1" parent="1">
          <mxGeometry x="607.5" y="440" width="99" height="30" as="geometry" />
        </mxCell>
        <mxCell id="h1MOtnAgdBjMfUtZ1UEY-98" style="edgeStyle=none;rounded=0;orthogonalLoop=1;jettySize=auto;html=1;exitX=1;exitY=0;exitDx=0;exitDy=0;entryX=0.25;entryY=1;entryDx=0;entryDy=0;endArrow=none;endFill=0;" edge="1" parent="1" source="h1MOtnAgdBjMfUtZ1UEY-99" target="h1MOtnAgdBjMfUtZ1UEY-3">
          <mxGeometry relative="1" as="geometry" />
        </mxCell>
        <mxCell id="h1MOtnAgdBjMfUtZ1UEY-99" value="total_food_sale_count" style="ellipse;whiteSpace=wrap;html=1;" vertex="1" parent="1">
          <mxGeometry x="308.5" y="570" width="134" height="30" as="geometry" />
        </mxCell>
        <mxCell id="h1MOtnAgdBjMfUtZ1UEY-100" style="edgeStyle=none;rounded=0;orthogonalLoop=1;jettySize=auto;html=1;exitX=0.5;exitY=0;exitDx=0;exitDy=0;entryX=0.583;entryY=1.02;entryDx=0;entryDy=0;entryPerimeter=0;endArrow=none;endFill=0;" edge="1" parent="1" source="h1MOtnAgdBjMfUtZ1UEY-101" target="h1MOtnAgdBjMfUtZ1UEY-3">
          <mxGeometry relative="1" as="geometry" />
        </mxCell>
        <mxCell id="h1MOtnAgdBjMfUtZ1UEY-101" value="order_count" style="ellipse;whiteSpace=wrap;html=1;" vertex="1" parent="1">
          <mxGeometry x="480" y="580" width="99" height="30" as="geometry" />
        </mxCell>
        <mxCell id="h1MOtnAgdBjMfUtZ1UEY-102" style="edgeStyle=none;rounded=0;orthogonalLoop=1;jettySize=auto;html=1;exitX=0.5;exitY=0;exitDx=0;exitDy=0;entryX=0.5;entryY=1;entryDx=0;entryDy=0;endArrow=none;endFill=0;" edge="1" parent="1" source="h1MOtnAgdBjMfUtZ1UEY-103" target="h1MOtnAgdBjMfUtZ1UEY-4">
          <mxGeometry relative="1" as="geometry" />
        </mxCell>
        <mxCell id="h1MOtnAgdBjMfUtZ1UEY-103" value="comment" style="ellipse;whiteSpace=wrap;html=1;shadow=0;sketch=0;dashed=1;" vertex="1" parent="1">
          <mxGeometry x="1152" y="625" width="90" height="30" as="geometry" />
        </mxCell>
        <mxCell id="h1MOtnAgdBjMfUtZ1UEY-104" style="edgeStyle=none;rounded=0;orthogonalLoop=1;jettySize=auto;html=1;exitX=0;exitY=0.5;exitDx=0;exitDy=0;entryX=1;entryY=0.75;entryDx=0;entryDy=0;endArrow=none;endFill=0;" edge="1" parent="1" source="h1MOtnAgdBjMfUtZ1UEY-127" target="h1MOtnAgdBjMfUtZ1UEY-3">
          <mxGeometry relative="1" as="geometry">
            <mxPoint x="553.6763370217836" y="514.3396950066685" as="sourcePoint" />
          </mxGeometry>
        </mxCell>
        <mxCell id="h1MOtnAgdBjMfUtZ1UEY-108" value="" style="endArrow=none;html=1;rounded=0;entryX=0.5;entryY=0;entryDx=0;entryDy=0;startArrow=block;startFill=1;exitX=0.5;exitY=1;exitDx=0;exitDy=0;" edge="1" parent="1" source="h1MOtnAgdBjMfUtZ1UEY-41" target="h1MOtnAgdBjMfUtZ1UEY-84">
          <mxGeometry relative="1" as="geometry">
            <mxPoint x="470" y="200" as="sourcePoint" />
            <mxPoint x="780" y="590" as="targetPoint" />
          </mxGeometry>
        </mxCell>
        <mxCell id="h1MOtnAgdBjMfUtZ1UEY-109" value="" style="endArrow=none;html=1;rounded=0;exitX=0.5;exitY=1;exitDx=0;exitDy=0;entryX=0.5;entryY=0;entryDx=0;entryDy=0;" edge="1" parent="1" source="h1MOtnAgdBjMfUtZ1UEY-84" target="h1MOtnAgdBjMfUtZ1UEY-3">
          <mxGeometry relative="1" as="geometry">
            <mxPoint x="620" y="590" as="sourcePoint" />
            <mxPoint x="780" y="590" as="targetPoint" />
          </mxGeometry>
        </mxCell>
        <mxCell id="h1MOtnAgdBjMfUtZ1UEY-110" value="" style="group" vertex="1" connectable="0" parent="1">
          <mxGeometry x="670" y="605" width="352.5" height="170" as="geometry" />
        </mxCell>
        <mxCell id="h1MOtnAgdBjMfUtZ1UEY-111" value="Order&lt;span style=&quot;color: rgba(0 , 0 , 0 , 0) ; font-family: monospace ; font-size: 0px&quot;&gt;%3CmxGraphModel%3E%3Croot%3E%3CmxCell%20id%3D%220%22%2F%3E%3CmxCell%20id%3D%221%22%20parent%3D%220%22%2F%3E%3CmxCell%20id%3D%222%22%20value%3D%22customer_id%22%20style%3D%22ellipse%3BwhiteSpace%3Dwrap%3Bhtml%3D1%3B%22%20vertex%3D%221%22%20parent%3D%221%22%3E%3CmxGeometry%20x%3D%2280%22%20y%3D%2280%22%20width%3D%2290%22%20height%3D%2230%22%20as%3D%22geometry%22%2F%3E%3C%2FmxCell%3E%3C%2Froot%3E%3C%2FmxGraphModel%3E&lt;/span&gt;" style="rounded=0;whiteSpace=wrap;html=1;" vertex="1" parent="h1MOtnAgdBjMfUtZ1UEY-110">
          <mxGeometry x="99" y="45" width="120" height="60" as="geometry" />
        </mxCell>
        <mxCell id="h1MOtnAgdBjMfUtZ1UEY-112" style="edgeStyle=none;rounded=0;orthogonalLoop=1;jettySize=auto;html=1;exitX=0.5;exitY=1;exitDx=0;exitDy=0;entryX=0.319;entryY=0.03;entryDx=0;entryDy=0;entryPerimeter=0;endArrow=none;endFill=0;" edge="1" parent="h1MOtnAgdBjMfUtZ1UEY-110" source="h1MOtnAgdBjMfUtZ1UEY-113" target="h1MOtnAgdBjMfUtZ1UEY-111">
          <mxGeometry relative="1" as="geometry" />
        </mxCell>
        <mxCell id="h1MOtnAgdBjMfUtZ1UEY-113" value="order_id" style="ellipse;whiteSpace=wrap;html=1;fontStyle=4" vertex="1" parent="h1MOtnAgdBjMfUtZ1UEY-110">
          <mxGeometry x="90" y="-10" width="90" height="30" as="geometry" />
        </mxCell>
        <mxCell id="h1MOtnAgdBjMfUtZ1UEY-114" value="payment_id" style="ellipse;whiteSpace=wrap;html=1;fontStyle=0" vertex="1" parent="h1MOtnAgdBjMfUtZ1UEY-110">
          <mxGeometry y="65" width="90" height="30" as="geometry" />
        </mxCell>
        <mxCell id="h1MOtnAgdBjMfUtZ1UEY-115" style="edgeStyle=none;rounded=0;orthogonalLoop=1;jettySize=auto;html=1;exitX=0.5;exitY=1;exitDx=0;exitDy=0;entryX=1;entryY=0;entryDx=0;entryDy=0;endArrow=none;endFill=0;" edge="1" parent="h1MOtnAgdBjMfUtZ1UEY-110" source="h1MOtnAgdBjMfUtZ1UEY-116" target="h1MOtnAgdBjMfUtZ1UEY-111">
          <mxGeometry relative="1" as="geometry" />
        </mxCell>
        <mxCell id="h1MOtnAgdBjMfUtZ1UEY-116" value="&lt;span&gt;customer_id&lt;/span&gt;" style="ellipse;whiteSpace=wrap;html=1;fontStyle=0" vertex="1" parent="h1MOtnAgdBjMfUtZ1UEY-110">
          <mxGeometry x="195" width="90" height="30" as="geometry" />
        </mxCell>
        <mxCell id="h1MOtnAgdBjMfUtZ1UEY-117" style="edgeStyle=none;rounded=0;orthogonalLoop=1;jettySize=auto;html=1;exitX=1;exitY=0.5;exitDx=0;exitDy=0;entryX=0;entryY=0;entryDx=0;entryDy=0;endArrow=none;endFill=0;" edge="1" parent="h1MOtnAgdBjMfUtZ1UEY-110" source="h1MOtnAgdBjMfUtZ1UEY-118" target="h1MOtnAgdBjMfUtZ1UEY-111">
          <mxGeometry relative="1" as="geometry" />
        </mxCell>
        <mxCell id="h1MOtnAgdBjMfUtZ1UEY-118" value="bussiness_id" style="ellipse;whiteSpace=wrap;html=1;fontStyle=0" vertex="1" parent="h1MOtnAgdBjMfUtZ1UEY-110">
          <mxGeometry y="15" width="90" height="30" as="geometry" />
        </mxCell>
        <mxCell id="h1MOtnAgdBjMfUtZ1UEY-119" style="edgeStyle=none;rounded=0;orthogonalLoop=1;jettySize=auto;html=1;exitX=0;exitY=1;exitDx=0;exitDy=0;entryX=1;entryY=0.25;entryDx=0;entryDy=0;endArrow=none;endFill=0;" edge="1" parent="h1MOtnAgdBjMfUtZ1UEY-110" source="h1MOtnAgdBjMfUtZ1UEY-120" target="h1MOtnAgdBjMfUtZ1UEY-111">
          <mxGeometry relative="1" as="geometry" />
        </mxCell>
        <mxCell id="h1MOtnAgdBjMfUtZ1UEY-120" value="rate_id" style="ellipse;whiteSpace=wrap;html=1;fontStyle=0" vertex="1" parent="h1MOtnAgdBjMfUtZ1UEY-110">
          <mxGeometry x="235" y="35" width="90" height="30" as="geometry" />
        </mxCell>
        <mxCell id="h1MOtnAgdBjMfUtZ1UEY-121" style="edgeStyle=none;rounded=0;orthogonalLoop=1;jettySize=auto;html=1;exitX=0.5;exitY=0;exitDx=0;exitDy=0;entryX=0.75;entryY=1;entryDx=0;entryDy=0;endArrow=none;endFill=0;" edge="1" parent="h1MOtnAgdBjMfUtZ1UEY-110" source="h1MOtnAgdBjMfUtZ1UEY-122" target="h1MOtnAgdBjMfUtZ1UEY-111">
          <mxGeometry relative="1" as="geometry" />
        </mxCell>
        <mxCell id="h1MOtnAgdBjMfUtZ1UEY-122" value="price" style="ellipse;whiteSpace=wrap;html=1;fontStyle=0;strokeWidth=3;" vertex="1" parent="h1MOtnAgdBjMfUtZ1UEY-110">
          <mxGeometry x="170" y="125" width="77.5" height="30" as="geometry" />
        </mxCell>
        <mxCell id="h1MOtnAgdBjMfUtZ1UEY-123" style="edgeStyle=none;rounded=0;orthogonalLoop=1;jettySize=auto;html=1;exitX=1;exitY=0;exitDx=0;exitDy=0;entryX=0.25;entryY=1;entryDx=0;entryDy=0;endArrow=none;endFill=0;" edge="1" parent="h1MOtnAgdBjMfUtZ1UEY-110" source="h1MOtnAgdBjMfUtZ1UEY-124" target="h1MOtnAgdBjMfUtZ1UEY-111">
          <mxGeometry relative="1" as="geometry" />
        </mxCell>
        <mxCell id="h1MOtnAgdBjMfUtZ1UEY-124" value="food_id" style="ellipse;whiteSpace=wrap;html=1;fontStyle=0;strokeWidth=3;" vertex="1" parent="h1MOtnAgdBjMfUtZ1UEY-110">
          <mxGeometry x="52.5" y="115" width="90" height="30" as="geometry" />
        </mxCell>
        <mxCell id="h1MOtnAgdBjMfUtZ1UEY-125" style="edgeStyle=none;rounded=0;orthogonalLoop=1;jettySize=auto;html=1;exitX=0;exitY=0;exitDx=0;exitDy=0;entryX=1;entryY=0.75;entryDx=0;entryDy=0;endArrow=none;endFill=0;" edge="1" parent="h1MOtnAgdBjMfUtZ1UEY-110" source="h1MOtnAgdBjMfUtZ1UEY-126" target="h1MOtnAgdBjMfUtZ1UEY-111">
          <mxGeometry relative="1" as="geometry" />
        </mxCell>
        <mxCell id="h1MOtnAgdBjMfUtZ1UEY-126" value="order_time" style="ellipse;whiteSpace=wrap;html=1;fontStyle=0" vertex="1" parent="h1MOtnAgdBjMfUtZ1UEY-110">
          <mxGeometry x="252.5" y="85" width="90" height="30" as="geometry" />
        </mxCell>
        <mxCell id="h1MOtnAgdBjMfUtZ1UEY-128" style="edgeStyle=none;rounded=0;orthogonalLoop=1;jettySize=auto;html=1;exitX=0;exitY=0;exitDx=0;exitDy=0;entryX=1;entryY=1;entryDx=0;entryDy=0;startArrow=none;startFill=0;endArrow=none;endFill=0;" edge="1" parent="h1MOtnAgdBjMfUtZ1UEY-110" source="h1MOtnAgdBjMfUtZ1UEY-129" target="h1MOtnAgdBjMfUtZ1UEY-111">
          <mxGeometry relative="1" as="geometry" />
        </mxCell>
        <mxCell id="h1MOtnAgdBjMfUtZ1UEY-129" value="total_price" style="ellipse;whiteSpace=wrap;html=1;fontStyle=0" vertex="1" parent="h1MOtnAgdBjMfUtZ1UEY-110">
          <mxGeometry x="247.5" y="125" width="77.5" height="30" as="geometry" />
        </mxCell>
        <mxCell id="h1MOtnAgdBjMfUtZ1UEY-130" style="edgeStyle=none;rounded=0;orthogonalLoop=1;jettySize=auto;html=1;exitX=0.5;exitY=1;exitDx=0;exitDy=0;entryX=0.5;entryY=0;entryDx=0;entryDy=0;endArrow=none;endFill=0;" edge="1" parent="1" source="h1MOtnAgdBjMfUtZ1UEY-111" target="h1MOtnAgdBjMfUtZ1UEY-16">
          <mxGeometry relative="1" as="geometry" />
        </mxCell>
        <mxCell id="h1MOtnAgdBjMfUtZ1UEY-131" style="edgeStyle=none;rounded=0;orthogonalLoop=1;jettySize=auto;html=1;exitX=0.5;exitY=0;exitDx=0;exitDy=0;entryX=0;entryY=1;entryDx=0;entryDy=0;endArrow=none;endFill=0;startArrow=block;startFill=1;" edge="1" parent="1" source="h1MOtnAgdBjMfUtZ1UEY-56" target="h1MOtnAgdBjMfUtZ1UEY-12">
          <mxGeometry relative="1" as="geometry" />
        </mxCell>
        <mxCell id="h1MOtnAgdBjMfUtZ1UEY-132" style="edgeStyle=none;rounded=0;orthogonalLoop=1;jettySize=auto;html=1;exitX=1;exitY=0.5;exitDx=0;exitDy=0;entryX=0;entryY=0.5;entryDx=0;entryDy=0;endArrow=none;endFill=0;" edge="1" parent="1" source="h1MOtnAgdBjMfUtZ1UEY-111" target="h1MOtnAgdBjMfUtZ1UEY-81">
          <mxGeometry relative="1" as="geometry" />
        </mxCell>
        <mxCell id="h1MOtnAgdBjMfUtZ1UEY-133" style="edgeStyle=none;rounded=0;orthogonalLoop=1;jettySize=auto;html=1;exitX=0.5;exitY=1;exitDx=0;exitDy=0;entryX=0.5;entryY=0;entryDx=0;entryDy=0;endArrow=none;endFill=0;startArrow=block;startFill=1;" edge="1" parent="1" source="h1MOtnAgdBjMfUtZ1UEY-20" target="h1MOtnAgdBjMfUtZ1UEY-86">
          <mxGeometry relative="1" as="geometry" />
        </mxCell>
        <mxCell id="h1MOtnAgdBjMfUtZ1UEY-134" style="edgeStyle=none;rounded=0;orthogonalLoop=1;jettySize=auto;html=1;exitX=1;exitY=0.5;exitDx=0;exitDy=0;endArrow=none;endFill=0;" edge="1" parent="1" source="h1MOtnAgdBjMfUtZ1UEY-114">
          <mxGeometry relative="1" as="geometry">
            <mxPoint x="720" y="690" as="targetPoint" />
          </mxGeometry>
        </mxCell>
        <mxCell id="h1MOtnAgdBjMfUtZ1UEY-127" value="food_id" style="ellipse;whiteSpace=wrap;html=1;strokeWidth=3;" vertex="1" parent="1">
          <mxGeometry x="610" y="540" width="99" height="30" as="geometry" />
        </mxCell>
      </root>
    </mxGraphModel>
  </diagram>
</mxfile>
